<svg width="27" height="24" viewBox="0 0 27 24" fill="none" xmlns="http://www.w3.org/2000/svg">
<path d="M18.4804 24H23.7728C25.4993 24 26.8861 22.6132 26.8861 20.9151V13.5566C26.8861 11.8585 25.471 10.4717 23.7728 10.4717H20.7445V9.33962C20.7445 7.5283 22.1313 5.83019 24.0842 5.26415C25.4993 4.83962 26.32 3.33962 25.8955 1.92453C25.5559 0.764151 24.4804 0 23.32 0C23.0653 0 22.8106 0.0283019 22.5559 0.113208C18.254 1.38679 15.3672 5.09434 15.3672 9.33962V20.9151C15.3672 22.6415 16.7257 24 18.4804 24Z" fill="#1C705E"/>
<path d="M3.08491 24H8.37736C10.1038 24 11.4906 22.6132 11.4906 20.9151V13.5566C11.4906 11.8585 10.0755 10.4717 8.37736 10.4717H5.37736V9.33962C5.37736 7.5283 6.76415 5.83019 8.71698 5.26415C10.1321 4.83962 10.9528 3.33962 10.5283 1.92453C10.1887 0.764151 9.11321 0 7.95283 0C7.69811 0 7.4434 0.0283019 7.18868 0.113208C2.88679 1.38679 0 5.09434 0 9.33962V20.9151C0 22.6415 1.35849 24 3.08491 24Z" fill="#1C705E"/>
</svg>
