<svg width="9" height="9" viewBox="0 0 20 20" fill="none" xmlns="http://www.w3.org/2000/svg">
<path d="M18.3742 0.0578256L5.87539 3.74906C5.62168 3.82876 5.39999 3.98731 5.24256 4.20165C5.08513 4.416 5.00016 4.67497 5 4.94092V15.1528C4.59068 15.0535 4.1712 15.0021 3.75 14.9997C1.67969 14.9997 0 16.1193 0 17.4999C0 18.8804 1.67969 20 3.75 20C5.82031 20 7.5 18.8804 7.5 17.4999V8.3712L17.5 5.44134V12.6531C17.0907 12.5534 16.6712 12.5019 16.25 12.4996C14.1797 12.4996 12.5 13.6192 12.5 14.9997C12.5 16.3803 14.1797 17.4999 16.25 17.4999C18.3203 17.4999 20 16.3806 20 14.9997V1.24891C19.9998 1.05266 19.9534 0.859219 19.8646 0.684229C19.7758 0.509239 19.647 0.357621 19.4887 0.241646C19.3304 0.125671 19.147 0.0485972 18.9534 0.0166625C18.7598 -0.0152723 18.5614 -0.0011708 18.3742 0.0578256Z" fill="#1E1F3C"/>
</svg>
