<svg width="19" height="21" viewBox="0 0 19 21" fill="none" xmlns="http://www.w3.org/2000/svg">
<path d="M0.575195 0.333496H3.24186V3.74295C4.82855 2.49617 6.82933 1.75256 9.00379 1.75256C14.1584 1.75256 18.3371 5.93124 18.3371 11.0859C18.3371 16.2406 14.1584 20.4192 9.00379 20.4192C6.13647 20.4192 3.57114 19.1263 1.85905 17.0915L4.01815 15.5118C5.23935 16.8865 7.02042 17.7526 9.00379 17.7526C12.6857 17.7526 15.6705 14.7678 15.6705 11.0859C15.6705 7.404 12.6857 4.41923 9.00379 4.41923C7.55466 4.41923 6.21353 4.88159 5.11986 5.66683L8.5752 5.66683V8.3335H0.575195V0.333496Z" fill="#1E1F3C"/>
</svg>
