<svg width="9pt" height="6pt" viewBox="0 0 9 6" fill="none" xmlns="http://www.w3.org/2000/svg">
    <path d="M2 1.81125C1.34461 1.41084 0.711657 1.39461 0.311251 1.775C-0.0891556 2.15539 -0.105385 2.78834 0.275001 3.18875L1.725 1.81125ZM3.375 5L2.65 5.68875C2.83389 5.88232 3.08755 5.99431 3.35449 5.99979C3.62143 6.00527 3.87947 5.90377 4.07115 5.7179L3.375 5ZM8.19615 1.7179C8.59263 1.33343 8.60237 0.70034 8.2179 0.303854C7.83343 -0.0926312 7.20034 -0.102371 6.80385 0.2821L8.19615 1.7179ZM0.275001 3.18875L2.65 5.68875L4.1 4.31125L1.725 1.81125L0.275001 3.18875ZM4.07115 5.7179L8.19615 1.7179L6.80385 0.2821L2.67885 4.2821L4.07115 5.7179Z" fill="#000" />
</svg>
    