<svg width="19" height="21" viewBox="0 0 19 21" fill="none" xmlns="http://www.w3.org/2000/svg">
<path d="M18.396 0.333496H15.7293V3.74295C14.1426 2.49617 12.1418 1.75256 9.96737 1.75256C4.81271 1.75256 0.634033 5.93124 0.634033 11.0859C0.634033 16.2406 4.81271 20.4192 9.96737 20.4192C12.8347 20.4192 15.4 19.1263 17.1121 17.0915L14.953 15.5118C13.7318 16.8865 11.9507 17.7526 9.96737 17.7526C6.28547 17.7526 3.3007 14.7678 3.3007 11.0859C3.3007 7.404 6.28547 4.41923 9.96737 4.41923C11.4165 4.41923 12.7576 4.88159 13.8513 5.66683L10.396 5.66683V8.3335H18.396V0.333496Z" fill="#1E1F3C"/>
</svg>
