<svg width="54" height="54" viewBox="0 0 54 54" fill="none" xmlns="http://www.w3.org/2000/svg">
<path d="M26.9999 53.6669C12.279 53.6507 0.349418 41.7211 0.333252 27.0002V26.4669C0.626403 11.8123 12.6921 0.141428 27.3484 0.335891C42.0046 0.530355 53.7565 12.5172 53.6607 27.1744C53.5649 41.8316 41.6574 53.6639 26.9999 53.6669ZM26.9573 48.3335H26.9999C38.7778 48.3218 48.3178 38.7675 48.3119 26.9896C48.306 15.2116 38.7565 5.66689 26.9786 5.66689C15.2007 5.66689 5.65114 15.2116 5.64525 26.9896C5.63937 38.7675 15.1793 48.3218 26.9573 48.3335ZM34.9999 37.6669H29.6666V16.3335H34.9999V37.6669ZM24.3333 37.6669H18.9999V16.3335H24.3333V37.6669Z" fill="#1E1F3C"/>
</svg>
